<svg width="60" height="60" viewBox="0 0 844 844" fill="none" xmlns="http://www.w3.org/2000/svg">
<circle cx="422" cy="422" r="422" fill="#346DFF"/>
<path d="M192.688 513H153.918V372.375H192.688V433.801H244.055V372.375H282.824V513H244.055V451.672H192.688V513ZM306.797 464.758C306.797 459.615 307.22 454.276 308.066 448.742C308.978 443.208 310.247 437.674 311.875 432.141C313.568 426.607 315.586 421.138 317.93 415.734C320.273 410.331 322.91 405.155 325.84 400.207H349.961C348.333 405.09 346.868 410.201 345.566 415.539C344.329 420.812 343.255 426.118 342.344 431.457C341.497 436.73 340.814 441.906 340.293 446.984C339.837 452.062 339.609 456.783 339.609 461.145C339.609 463.684 339.707 466.418 339.902 469.348C340.163 472.212 340.586 475.109 341.172 478.039C341.758 480.904 342.572 483.671 343.613 486.34C344.72 489.009 346.12 491.385 347.812 493.469C349.505 495.487 351.556 497.115 353.965 498.352C356.439 499.523 359.336 500.109 362.656 500.109C365.911 500.109 368.809 499.393 371.348 497.961C373.952 496.464 376.23 494.543 378.184 492.199C380.137 489.79 381.797 487.056 383.164 483.996C384.531 480.936 385.638 477.811 386.484 474.621C387.396 471.366 388.047 468.208 388.438 465.148C388.893 462.023 389.121 459.224 389.121 456.75V400.207H422.129V513H409.434L394.297 486.73C392.409 491.092 390.098 495.064 387.363 498.645C384.694 502.16 381.634 505.188 378.184 507.727C374.733 510.266 370.892 512.219 366.66 513.586C362.493 514.953 357.969 515.637 353.086 515.637C345.273 515.637 338.47 514.367 332.676 511.828C326.882 509.289 322.064 505.773 318.223 501.281C314.382 496.789 311.517 491.451 309.629 485.266C307.741 479.016 306.797 472.18 306.797 464.758ZM484.676 513H451.668V358.703H484.676V459.973C490.079 456.066 495.385 451.77 500.594 447.082C505.867 442.395 510.88 437.479 515.633 432.336C520.385 427.128 524.78 421.822 528.816 416.418C532.918 411.014 536.499 405.611 539.559 400.207H562.02C557.462 407.889 552.059 415.572 545.809 423.254C539.559 430.871 532.755 438.163 525.398 445.129L562.41 513H525.984L499.715 465.93C494.832 469.25 489.819 472.31 484.676 475.109V513ZM691.266 513H658.258V499.523C654.352 504.862 649.632 508.833 644.098 511.438C638.629 513.977 632.607 515.246 626.031 515.246C617.438 515.246 609.755 513.716 602.984 510.656C596.214 507.596 590.484 503.43 585.797 498.156C581.109 492.818 577.529 486.568 575.055 479.406C572.581 472.245 571.344 464.562 571.344 456.359C571.344 448.156 572.581 440.474 575.055 433.312C577.529 426.151 581.109 419.934 585.797 414.66C590.484 409.322 596.214 405.122 602.984 402.062C609.755 399.003 617.438 397.473 626.031 397.473C630.393 397.473 634.527 398.124 638.434 399.426C642.405 400.728 646.018 402.583 649.273 404.992C652.594 407.336 655.491 410.201 657.965 413.586C660.504 416.906 662.49 420.617 663.922 424.719L678.57 400.207H691.266V513ZM658.062 456.359C658.062 453.43 657.9 450.337 657.574 447.082C657.314 443.827 656.826 440.604 656.109 437.414C655.393 434.224 654.384 431.197 653.082 428.332C651.845 425.402 650.217 422.831 648.199 420.617C646.246 418.339 643.87 416.548 641.07 415.246C638.271 413.944 635.016 413.293 631.305 413.293C627.594 413.293 624.371 413.977 621.637 415.344C618.902 416.646 616.559 418.436 614.605 420.715C612.652 422.928 611.025 425.5 609.723 428.43C608.486 431.359 607.509 434.419 606.793 437.609C606.077 440.799 605.556 444.022 605.23 447.277C604.97 450.467 604.84 453.495 604.84 456.359C604.84 459.224 604.97 462.284 605.23 465.539C605.556 468.794 606.077 472.017 606.793 475.207C607.509 478.397 608.486 481.457 609.723 484.387C611.025 487.316 612.652 489.921 614.605 492.199C616.559 494.413 618.902 496.203 621.637 497.57C624.371 498.872 627.594 499.523 631.305 499.523C634.69 499.523 637.685 498.84 640.289 497.473C642.958 496.04 645.27 494.152 647.223 491.809C649.241 489.465 650.934 486.796 652.301 483.801C653.668 480.806 654.775 477.714 655.621 474.523C656.467 471.333 657.086 468.176 657.477 465.051C657.867 461.861 658.062 458.964 658.062 456.359Z" fill="white"/>
<line x1="329" y1="349" x2="413" y2="349" stroke="white" stroke-width="24" stroke-linejoin="bevel"/>
</svg>
