<svg width="30" height="30" viewBox="0 0 508 507" fill="none" xmlns="http://www.w3.org/2000/svg">
<path d="M459.62 165.5H400.12L345.87 18.4001C341.983 8.98211 333.475 2.25911 323.409 0.658111C313.347 -0.943489 303.171 2.80261 296.55 10.5487C289.929 18.2987 287.812 28.9317 290.964 38.6227L337.698 165.503H170.288L217.022 38.6227C220.174 28.9313 218.057 18.2987 211.436 10.5487C204.815 2.80261 194.639 -0.943289 184.577 0.658111C174.511 2.25971 166.003 8.98231 162.116 18.4001L107.866 165.5H48.3662C32.6282 165.563 17.9172 173.32 8.97123 186.266C0.0259285 199.211 -2.02877 215.715 3.47513 230.457C8.98293 245.199 21.3461 256.32 36.5881 260.234L87.9321 499.824C88.7954 503.863 92.3618 506.746 96.4907 506.746H411.491C415.62 506.746 419.186 503.863 420.049 499.824L471.393 260.234C486.635 256.32 498.998 245.199 504.506 230.457C510.01 215.715 507.956 199.211 499.01 186.266C490.065 173.321 475.354 165.563 459.615 165.5H459.62ZM307.37 32.6001C306.034 28.9829 306.554 24.9439 308.761 21.7841C310.964 18.6279 314.577 16.745 318.429 16.7529C323.358 16.7685 327.761 19.8349 329.48 24.4521L381.449 165.502H356.371L307.37 32.6001ZM178.51 24.4517C180.229 19.8345 184.631 16.7681 189.561 16.7525C193.413 16.7447 197.026 18.6275 199.229 21.7837C201.436 24.9439 201.956 28.9829 200.62 32.5997L151.62 165.5H126.542L178.51 24.4517ZM140.244 489.252H103.572L90.447 428.002H140.244V489.252ZM140.244 410.502H87.744C87.4042 410.545 87.0683 410.615 86.7362 410.705L71.6972 340.502H140.244L140.244 410.502ZM140.244 323.002H67.943L54.818 261.752H140.244V323.002ZM245.244 489.252H157.744V428.002H245.244V489.252ZM245.244 410.502H157.744V340.502H245.244V410.502ZM245.244 323.002H157.744V261.752H245.244V323.002ZM332.744 489.252H262.744V428.002H332.744V489.252ZM332.744 410.502H262.744V340.502H332.744V410.502ZM332.744 323.002H262.744V261.752H332.744V323.002ZM404.416 489.252H350.244V428.002H417.541L404.416 489.252ZM421.252 410.705C420.92 410.615 420.584 410.545 420.244 410.502H350.244V340.502H436.291L421.252 410.705ZM440.045 323.002H350.244V261.752H453.174L440.045 323.002ZM459.619 244.252H48.369C37.428 244.252 27.318 238.416 21.846 228.94C16.3772 219.463 16.3772 207.792 21.846 198.315C27.3187 188.838 37.428 183.003 48.369 183.003H459.619C470.56 183.003 480.67 188.839 486.142 198.315C491.611 207.791 491.611 219.463 486.142 228.94C480.669 238.416 470.56 244.252 459.619 244.252Z" fill="black"/>
<path d="M459 258H50L97.5517 494H408.448L459 258Z" fill="black" stroke="black"/>
</svg>
